<?xml version="1.0" encoding="utf-8"?>
<!-- Generator: Adobe Illustrator 22.1.0, SVG Export Plug-In . SVG Version: 6.00 Build 0)  -->
<svg version="1.1" id="Layer_1" xmlns="http://www.w3.org/2000/svg" xmlns:xlink="http://www.w3.org/1999/xlink" x="0px" y="0px"
	 viewBox="0 0 3000 2000" style="enable-background:new 0 0 3000 2000;" xml:space="preserve">
<style type="text/css">
	.st0{stroke:#000000;stroke-width:5;stroke-miterlimit:10;}
</style>
<title>Artboard 1</title>
<path class="st0" d="M1204.1,525.6c24.1,11.5,49.7,16.3,76.2,17.6c24.8,1.2,49.8,1.6,74.6,0.3c43.4-2.4,94.3-13.2,120.9-51.2
	c12-17.1,16.2-40.6,5.8-59.6c-9.4-17-28.2-24.2-46.6-26.3c-22.6-2.5-45.9,1.1-68.2,3.9c-26.3,3.4-52.6,8.1-77.8,16.9
	c-23.8,8.2-46.5,20.1-65.7,36.5c-9.4,7.9-17.8,17-24.9,27c-6.7,9.7-11.7,21.7-6.5,33.2c0.8,1.8,3.4,0.2,2.6-1.5
	c-5.6-12.3,2.7-25.4,10.1-35c6.2-7.9,13.2-15.1,20.8-21.6c16.6-14.1,35.9-24.8,56.1-32.7c22.4-8.7,46-13.9,69.7-17.6
	c22.4-3.5,45.5-6.8,68.2-6.9c18.1-0.1,38.5,2.5,52.1,15.8c16.5,16.1,16,42,5.1,61.1c-22.2,38.6-72.2,51.3-113.4,54.5
	c-25,1.9-50.2,1.4-75.2,0.6c-28.7-0.9-56.3-5.1-82.4-17.5C1203.9,522.2,1202.4,524.7,1204.1,525.6L1204.1,525.6z"/>
<path class="st0" d="M1188.3,512.7c3.1,86.1-78.6,146.1-143.6,187c-69.1,43.4-144.3,79.8-200.4,140.6
	c-28.3,30.6-50.7,66.8-60.6,107.7c-0.1,0.5,0,1.1,0.4,1.5c69.8,58.6,149.6,107.6,234.9,140.2c10,3.8,22,7.3,32.2,2.1
	c7.7-3.9,12.8-11.4,11.6-20.1c-0.2-0.8-1.1-1.3-1.8-1c-0.2,0.1-0.5,0.2-0.7,0.4c-2.3,3-5.6,5.1-9.2,6c-1.2,0.3-3.5,0.7-4.7,0.4
	c-3.2-0.9-1.5-0.4-2.2-2.4c-1.7-4.4-1.7-9.8-3.3-14.3c-2.9-8.6-7.3-16.6-12.9-23.7c-12-15.6-28.7-27.1-46.2-35.8
	c-40.5-20-85.9-22-128.9-33.5c-25.9-6.9-50.8-17.6-69.9-36.8l-1.5,2.5c47.7,9,94.4,22.6,139.6,40.4c22.9,9.1,45.4,19.2,67.4,30.5
	c10.9,5.6,21.6,11.4,32.2,17.5c9.5,5.4,19,11.2,26.7,19.1c8.2,8.4,13.5,19.2,11.6,31.2c-1.7,10.3-8.2,19.8-19.1,21.3l1.2,2.7
	c21.6-11.7,43.8-22.6,66.3-32.4c11.9-5.2,23.9-10.1,36-14.7c5.9-2.3,12.6-5.6,19.1-5.4c7.3,0.3,11.8,5.8,14.9,11.6
	c11,20.3,18.3,43.5,25.2,65.4s12.5,44.1,17.7,66.4c20.4,88.4,32.4,180.2,72.2,262.8c22.2,46.1,53.2,91.1,55,144
	c0,0.8,0.7,1.5,1.5,1.5c0.3,0,0.5-0.1,0.7-0.2c72.8-50.6,157.1-82.4,245.2-92.5c44.2-5,88.4-3.8,132.5,1.4
	c45.9,5.4,91.5,14,137.6,17.6c49.8,4,100.6,1.6,147.3-17.7l-1.5-2.5c-13.9,16.7-35.9,21.8-56.2,26.1c-21.9,4.5-44.1,7.8-66.4,9.8
	c-44.3,4.1-88.8,4.1-133.3,2.8c-87.9-2.4-176.4-10-264.1,0.7c-47.4,5.8-93.9,17.4-137.3,37.4c-1.8,0.8-0.2,3.4,1.5,2.6
	c81.2-37.4,171.3-43.6,259.6-42.3c89.4,1.3,179,9.9,268.3,2.2c24.4-2,48.6-5.5,72.5-10.4c20.8-4.4,43.3-9.8,57.5-26.9
	c0.8-1,0.1-3.1-1.5-2.5c-87.3,36-183.2,12.8-272.9,1.3c-44.3-5.7-88.6-8-133.1-3.8c-43.2,4.1-85.8,13.3-126.8,27.5
	c-46.3,16.1-90.3,38.4-130.5,66.4l2.3,1.3c-1.6-46.8-25.9-87.9-46.9-128.5c-22.4-43.5-37.9-89.4-49.5-136.9
	c-11.5-46.8-19.9-94.2-30.7-141.2c-5.4-23.4-11.3-46.6-18.6-69.5c-6.8-21.5-14-44.2-24.8-64.1c-4.8-8.8-11.9-14.6-22.3-12.7
	c-7,1.3-13.9,4.6-20.5,7.1c-6.8,2.7-13.6,5.4-20.3,8.2c-26.4,11.1-52.2,23.4-77.3,37.1c-1.6,0.9-0.4,3,1.2,2.8
	c16.5-2.3,23.9-21,21.1-35.9c-4-21.2-26.3-33.6-43.4-43.3c-73.4-41.6-153.2-70.8-236.1-86.5c-0.8-0.2-1.6,0.3-1.8,1.1
	c-0.1,0.5,0,1,0.4,1.4c30.5,30.6,74,39.4,114.9,46.9c40.4,7.5,82.1,15.7,114.5,43c16.9,14.2,29.1,33,31.3,55.3
	c0,0.7,0.5,1.2,1.1,1.4c7.3,1.9,15.1-0.7,19.9-6.6l-2.5-0.7c1.3,9.4-7,16.9-15.7,18.5c-9.4,1.8-19.1-2.1-27.7-5.5
	c-15.3-6.1-30.4-12.7-45.3-19.7c-58.4-27.5-113.5-61.5-164.2-101.5c-5.8-4.6-12.5-9-17.7-14.3c-3-3.1-2.1-4.7-1-8.7
	c1.2-4.3,2.5-8.5,4-12.7c4.8-13.5,10.9-26.5,18.2-38.8c64.1-108.6,191.3-149.7,287-222.9c48.2-36.9,96-89.5,93.7-154.3
	C1191.3,510.8,1188.3,510.8,1188.3,512.7L1188.3,512.7z"/>
<path class="st0" d="M1475.5,429.5c22.7,48.9,67.7,83.7,117.1,103c60.8,23.7,127.9,24.6,192.2,21.2c33.4-1.8,67.1-5.2,99-15.6
	c16.6-5.4,32.8-12.2,50.5-13.2c18-1,35.9,2.4,53.4,6.3c17.1,3.7,34.1,7.7,51.1,11.9c8.2,2,16.3,4.1,24.4,6.2
	c7.7,2,16.5,3.2,23.6,6.8c8.6,4.3,8.5,13.9,9.3,22.2c0.8,8.8,1.5,17.6,2,26.4c1,16.9,1.4,33.9,1.2,50.9
	c-0.8,76.7-13.4,152.8-37.2,225.7l2.2-0.9c-33.1-24.8-68.9-45.7-106.7-62.3l-1.2,2.7c36.9,10.8,88.3,20.7,111.4-19.4
	c6.1-10.5,9.4-22.4,12.7-34c3.7-13.3,7-26.7,9.7-40.2c5.5-27.2,9.2-54.7,10.9-82.3c0.9-14.1,1.2-28.2,1.1-42.4
	c-0.1-12.6-0.1-25.4-2.4-37.8c-3.3-18.4-16.9-39.8-38.5-37c-5.6,0.7-6.6,1.2-7.6,6.7c-1.2,6.9-2.4,13.8-3.5,20.7
	c-2.2,14-4.2,28-5.9,42c-3.5,28.5-6,57.1-7.3,85.8c-3.1,64.4-0.9,128.9,6.6,192.9l2.6-1.1c-24-24.8-56.9-38.5-90.8-43.1
	c-40.4-5.5-81.2,1.8-120.3,11.7c-0.8,0.2-1.3,1.1-1,1.9c0.1,0.2,0.2,0.5,0.4,0.6c31.3,37.1,56.5,78.9,74.7,123.8
	c17.9,44.4,27.8,91,33.3,138.3c10.8,92.4,7.4,188.9,41.4,277c4.4,11.5,9.5,22.7,15.2,33.6c6.4,12.2,13.7,24.2,17.9,37.4
	c3.9,12.4,4.4,25.4-1.8,37.2c-5.6,10.5-15.5,18.5-27.9,17.2c-1.9-0.2-1.9,2.8,0,3c18.4,1.8,31.9-15,35-31.6
	c4.3-22.9-10.1-44.7-20.2-63.9c-23-43.8-34.4-92.3-40.9-141c-13.1-97.8-8.9-198.4-43.1-292.5c-18.7-51.3-46.2-98.9-81.4-140.7
	l-0.7,2.5c69.1-17.4,153.8-25.6,208.2,30.7c0.8,0.9,2.7,0.3,2.6-1.1c-12.3-105-10.3-211.3,5.9-315.8c1-6.2,2-12.4,3.1-18.7
	c0.4-2,0.5-8.4,2.2-9.8s6.1-1.2,8.4-1c11.7,0.8,21.4,9.8,26.2,20c5.3,11.3,5.9,24.2,6.4,36.5c0.5,12.8,0.5,25.5,0.2,38.2
	c-1.4,51.7-9.4,103.8-24.8,153.2c-3.9,12.4-9,24.8-18.5,33.9c-8.1,7.8-18.6,12.2-29.6,14.1c-23,3.8-46.8-2.1-68.8-8.5
	c-1.6-0.5-2.7,2-1.2,2.8c37.8,16.6,73.6,37.5,106.7,62.3c0.7,0.4,1.6,0.2,2.1-0.6c0.1-0.1,0.1-0.2,0.1-0.3
	c21.1-64.4,33.4-131.4,36.6-199.1c1.6-34.3,0.9-68.6-2.2-102.7c-0.6-6.2-0.5-13.3-3.2-19.1c-2.5-5.3-7.3-7.9-12.7-9.6
	c-16.7-5.2-34-9-51-13.1s-34-8.1-51.2-11.7c-16.4-3.4-33.3-6.1-50.2-4.6s-32.2,7.8-48.1,13c-16.2,5.2-32.8,8.9-49.7,11.2
	c-34.3,4.8-69.6,6-104.2,5.7c-34.1-0.3-68.3-3.3-101.5-11.6c-55.4-14-109.3-44.9-139.9-94.5c-3.6-5.8-6.8-11.8-9.6-17.9
	C1477.3,426.3,1474.7,427.8,1475.5,429.5L1475.5,429.5z"/>
<path class="st0" d="M1270.4,857.7c29.7,14.6,33.5,55.6,39.6,84.1c8.7,40.5,17.4,81,26.1,121.5c0.2,0.8,1.1,1.3,1.9,1
	c0.1,0,0.2-0.1,0.3-0.1c81.6-43.9,169.8-74,261.1-89.3c30.7-5.1,61.6-7.8,92.6-10.8c34.1-3.2,68.4-7.8,100.3-20.9
	c0.8-0.2,1.2-1.1,1-1.9c-0.1-0.5-0.5-0.9-1-1c-36.2-14.2-65.1-44.8-78.1-81.4c-7.6-21.5-7.9-43.7-7-66.2c0.9-21.2,2-42.9-4.9-63.3
	c-6.1-18-17.8-34.2-36.2-40.9c-0.8-0.2-1.6,0.3-1.9,1.1c0,0.1,0,0.2,0,0.4c-0.5,16.5-9.4,30.7-20.2,42.7
	c-10.3,11.5-22.2,21.8-34.1,31.7c-24.5,20.3-50.8,38.2-78.7,53.6c-55.4,30.8-116.2,51.7-178.4,63.3c-8.4,1.6-16.9,3-25.3,4.2
	c-9.2,1.3-19,2.7-28.2,0.6c-8.3-1.9-15.2-6.7-17.8-15.1c-2.1-6.9-0.8-15,6.1-18.5c1.7-0.9,0.2-3.5-1.5-2.6c-10,5.1-10.3,18.1-5.4,27
	c7.1,12.7,23.7,14,36.6,12.8c34.2-3.1,68.7-11.5,101.5-21.4c65.9-19.8,128.7-50.9,182.9-93.5c15-11.8,29.8-24.2,42.7-38.2
	c12-13,22.1-28.4,22.7-46.6l-1.9,1.4c18.7,6.8,30,24.4,35.4,42.8c6.4,22.2,3.8,45.5,3.2,68.2c-0.6,21.1,1.3,41.6,9,61.4
	c6.5,16.5,16,31.7,28,44.8c14,15.2,31.3,27.1,50.6,34.7v-2.9c-29.1,11.9-60.2,16.8-91.3,20c-30.3,3.1-60.7,5.3-90.8,10
	c-95.4,14.7-187.6,45.6-272.6,91.4l2.2,0.9c-7.1-33-14.2-66.1-21.3-99.1c-3.4-16-6.8-32.1-10.3-48.1c-2.6-11.4-5.6-22.8-10.7-33.4
	c-5.4-11.3-13.4-21.1-24.8-26.7C1270.2,854.3,1268.7,856.9,1270.4,857.7L1270.4,857.7z"/>
<path class="st0" d="M1184.8,550.8c17.6,16.4,41.5,21.7,64.7,24.8c29,3.9,58.7,7.6,88,6.3c50.6-2.4,99-22,137-55.5
	c19.8-17.5,38.4-41.7,35.8-69.6c-0.2-1.9-3.2-1.9-3,0c2.4,25.2-13.2,47.2-30.7,63.7c-17.8,16.7-38.3,30.2-60.7,40
	c-22.5,9.9-46.4,16-70.9,18c-28.2,2.2-56.4-1.1-84.3-4.4c-25.9-3.1-53.9-6.8-73.8-25.4C1185.5,547.3,1183.3,549.4,1184.8,550.8
	L1184.8,550.8z"/>
<path class="st0" d="M2013.8,852.3c-6.2-19.3-7.4-40.1-8.8-60.2c-1.4-20.5-2-41.1-1.8-61.7c0.5-41,4.3-82,11.4-122.4
	c4-22.8,9-45.3,15.1-67.6c0.2-0.8-0.4-1.6-1.2-1.8c-0.7-0.1-1.4,0.3-1.7,1c-21.7,80.3-30.2,163.7-25.2,246.8
	c1.4,22.2,2.4,45.4,9.3,66.7C2011.5,854.9,2014.4,854,2013.8,852.3L2013.8,852.3z"/>
<path class="st0" d="M790.8,907.4c67.5,62.9,168.1,58,246,100.8c22.3,12.2,52,31.5,51,60.4c-0.1,1.9,2.9,1.9,3,0
	c0.9-24.2-19.2-41.9-37.7-54.1S1014,993.2,993,986c-43.8-15.2-89.8-23.2-133-40.1c-24.5-9.6-47.7-22.5-67.1-40.5
	C791.5,904.1,789.4,906.2,790.8,907.4L790.8,907.4z"/>
<path class="st0" d="M1278,867.6c111.8,0.4,213.7-53.8,303.1-116c26.3-18.3,52-37.5,77.7-56.6c1.5-1.1,0-3.8-1.5-2.6
	c-87.9,65.6-179,133.3-287.2,160.6c-30.1,7.7-61,11.6-92,11.7c-0.8,0-1.5,0.7-1.5,1.5S1277.2,867.6,1278,867.6L1278,867.6z"/>
<path class="st0" d="M1269.5,863.3c4.9,38.9,13.3,77.2,23.1,115.1c4.9,19.1,10,38.1,15.3,57.1c1.8,6.6,3.9,14,9.6,18.5
	c4.6,3.6,10.4,4.7,15.7,2c1.7-0.9,0.2-3.5-1.5-2.6c-9.9,5.2-17-6.1-19.5-14c-2.4-7.7-4.3-15.6-6.5-23.3c-4.5-16.5-8.9-33-13.1-49.7
	c-8.5-34-15.8-68.3-20.1-103.1C1272.3,861.4,1269.3,861.4,1269.5,863.3L1269.5,863.3z"/>
<path class="st0" d="M1317.8,1050.1l90.7-39.5c15.1-6.6,30.1-13.7,46.1-17.7c15.8-3.9,32-4.9,48.1-6.8c58.6-7,113.5-30,170.9-42.5
	c32.6-7.1,66.1-10.5,99.2-4.7c1.9,0.3,2.7-2.6,0.8-2.9c-58.7-10.1-116.5,7.7-172.2,24.2c-29.1,8.6-58.3,17.1-88.4,21.6
	c-15.7,2.4-31.6,3.2-47.2,5.8s-30.1,8-44.5,14.2c-35.1,15.1-70,30.5-105,45.7C1314.5,1048.3,1316,1050.9,1317.8,1050.1
	L1317.8,1050.1z"/>
<path class="st0" d="M1756.7,952.1c-16.3-15.1-32.4-30.6-47.2-47.2c-7.4-8.3-14.1-17.2-18.1-27.6c-3.6-9.7-5.6-19.9-5.9-30.2
	c-1.9-40.8,16.3-83.1,1.6-123c-6.1-16.6-17.3-31.2-34-38.1c-1.8-0.7-2.6,2.2-0.8,2.9c16.8,6.9,27.8,22.5,33.1,39.4
	c6.4,20,4.5,41.5,1.9,62s-6.3,41.1-4.4,61.8c1.4,18.5,8.6,36,20.5,50.2c15.4,18.6,33.5,35.5,51.3,51.9
	C1756.1,955.5,1758.2,953.4,1756.7,952.1L1756.7,952.1z"/>
<path class="st0" d="M1347.7,1580.2c40.7-19.5,81.3-39.1,122-58.5c20.3-9.6,40.5-16.8,62.7-20s44.5-5.4,66.8-7.5
	c43.9-4.1,88-4.8,132-2.1c43.6,2.5,87.2,6.9,130.8,8.8c48.1,2.1,96.5,0.8,143.7-9.4c1.9-0.4,1.1-3.3-0.8-2.9
	c-86.8,18.7-175.7,6.7-263.2,1.1c-44-2.8-87.8-3.3-131.8,0.5c-22.3,1.9-44.6,4.4-66.8,7.1c-20.6,2.5-40.3,6.6-59.5,14.8
	c-23,9.8-45.3,21.3-67.8,32.1l-69.7,33.4C1344.3,1578.5,1345.9,1581.1,1347.7,1580.2L1347.7,1580.2z"/>
</svg>
