<svg xmlns="http://www.w3.org/2000/svg" viewBox="0 0 1322.01 1189.83"><title>Asset 1</title><g id="Layer_2" data-name="Layer 2"><g id="Layer_1-2" data-name="Layer 1"><path d="M423.74,120.11c24.1,11.48,49.66,16.35,76.19,17.6,24.77,1.16,49.85,1.61,74.62.26,43.38-2.35,94.35-13.22,120.89-51.24,12-17.15,16.22-40.63,5.8-59.6-9.35-17-28.19-24.24-46.57-26.28-22.58-2.51-45.86,1.06-68.23,3.93-26.33,3.37-52.62,8.14-77.76,16.86C484.92,29.87,462.2,41.73,443,58.09a143.52,143.52,0,0,0-24.86,27c-6.72,9.66-11.75,21.74-6.55,33.17.8,1.75,3.39.23,2.59-1.52-5.61-12.33,2.68-25.42,10.13-35a148.49,148.49,0,0,1,20.81-21.58c16.55-14.1,35.9-24.82,56.13-32.66,22.39-8.68,46-13.93,69.65-17.59,22.39-3.46,45.46-6.77,68.16-6.87C657.2,3,677.58,5.61,691.16,18.85c16.53,16.12,16,42,5.06,61.06C674,118.54,624,131.24,582.84,134.43c-25,1.93-50.18,1.37-75.2.57-28.65-.91-56.3-5.05-82.38-17.48-1.74-.83-3.26,1.76-1.52,2.59Z"/><path d="M407.88,107.25c3.13,86.12-78.61,146.13-143.58,187C195.19,337.63,120,374,63.88,434.78c-28.3,30.65-50.74,66.85-60.59,107.68a1.51,1.51,0,0,0,.39,1.46c69.8,58.63,149.63,107.65,234.93,140.24,10.06,3.84,22,7.26,32.24,2.14,7.73-3.86,12.85-11.37,11.64-20.11a1.51,1.51,0,0,0-2.51-.66,16.67,16.67,0,0,1-9.24,6c-1.24.28-3.49.72-4.73.36-3.16-.92-1.5-.44-2.23-2.37-1.69-4.42-1.75-9.77-3.3-14.35a81.75,81.75,0,0,0-12.85-23.68c-12-15.58-28.69-27.14-46.21-35.77-40.53-20-85.87-22-128.93-33.47-25.85-6.9-50.77-17.6-69.92-36.8L1.11,528a773.22,773.22,0,0,1,139.57,40.38q34.44,13.59,67.44,30.49,16.31,8.35,32.21,17.48c9.48,5.45,19,11.21,26.7,19.11,8.17,8.41,13.52,19.24,11.58,31.16-1.68,10.32-8.23,19.74-19.11,21.26l1.15,2.74Q293.13,673,327,658.15q17.81-7.75,36-14.69c5.93-2.26,12.62-5.64,19.14-5.4,7.25.26,11.76,5.75,14.94,11.64,11,20.33,18.31,43.47,25.19,65.45s12.53,44.06,17.68,66.37c20.4,88.44,32.38,180.24,72.16,262.83,22.22,46.12,53.19,91.1,55,144a1.52,1.52,0,0,0,2.26,1.3,536.87,536.87,0,0,1,245.3-92.42c44.18-5,88.37-3.85,132.47,1.37,45.91,5.43,91.46,14,137.58,17.64,49.81,4,100.55,1.56,147.26-17.71l-1.46-2.51c-13.87,16.73-35.88,21.85-56.21,26.11a590.83,590.83,0,0,1-66.44,9.83c-44.29,4.12-88.84,4.07-133.26,2.85-87.9-2.42-176.44-10-264.09.69-47.36,5.81-93.88,17.41-137.32,37.41-1.75.8-.22,3.39,1.52,2.59,81.23-37.4,171.34-43.61,259.56-42.31,89.39,1.32,179,9.88,268.31,2.24A605,605,0,0,0,1175,1125c20.81-4.36,43.34-9.76,57.53-26.88.83-1,.08-3.14-1.46-2.5-87.26,36-183.16,12.83-272.94,1.33-44.27-5.67-88.57-8-133.08-3.83a541.79,541.79,0,0,0-126.8,27.52,535.17,535.17,0,0,0-130.5,66.4l2.25,1.29c-1.57-46.84-25.93-87.92-46.85-128.47-22.45-43.5-37.86-89.43-49.5-136.9-11.46-46.78-19.85-94.23-30.64-141.16-5.37-23.36-11.33-46.6-18.56-69.46-6.81-21.53-14.05-44.2-24.85-64.13-4.75-8.75-11.88-14.63-22.33-12.67-7,1.31-13.88,4.55-20.52,7.14q-10.21,4-20.33,8.22A856,856,0,0,0,259.14,688c-1.62.88-.41,3,1.15,2.74,16.49-2.3,23.95-21,21.13-35.91-4-21.23-26.34-33.62-43.43-43.3A770.39,770.39,0,0,0,91.25,547.61,773.83,773.83,0,0,0,1.91,525.09,1.51,1.51,0,0,0,.45,527.6c30.49,30.57,74,39.36,114.92,46.91,40.42,7.46,82.07,15.73,114.49,43,16.9,14.2,29.08,33.06,31.27,55.34a1.56,1.56,0,0,0,1.1,1.45,19.26,19.26,0,0,0,19.87-6.6l-2.5-.66c1.3,9.42-7,16.9-15.69,18.51-9.45,1.75-19.07-2.07-27.68-5.48-15.3-6.07-30.4-12.69-45.3-19.7a852.29,852.29,0,0,1-84.67-45.85A845.28,845.28,0,0,1,26.78,558.9c-5.81-4.58-12.5-9-17.66-14.32-3-3.14-2.14-4.73-1-8.71q1.77-6.39,4-12.65a218,218,0,0,1,18.2-38.82c64.14-108.61,191.29-149.74,287-222.89,48.23-36.87,96-89.47,93.65-154.26-.07-1.93-3.07-1.93-3,0Z"/><path d="M695.11,24c22.7,48.9,67.65,83.68,117.08,103,60.8,23.73,127.88,24.61,192.17,21.23,33.42-1.76,67.07-5.2,99-15.63,16.64-5.44,32.82-12.18,50.51-13.21,18-1,35.91,2.45,53.43,6.26q25.65,5.6,51.13,11.89,12.22,3,24.43,6.17c7.68,2,16.47,3.24,23.61,6.77,8.62,4.26,8.5,13.86,9.28,22.22q1.23,13.19,2,26.39,1.46,25.41,1.19,50.88a753.18,753.18,0,0,1-37.25,225.74l2.2-.9a538.73,538.73,0,0,0-106.7-62.31l-1.16,2.74c36.88,10.78,88.32,20.67,111.44-19.38,6.07-10.51,9.42-22.42,12.66-34q5.56-19.9,9.7-40.18a591.24,591.24,0,0,0,10.89-82.32q1.29-21.17,1.06-42.37c-.14-12.55-.14-25.4-2.38-37.8-3.33-18.43-16.85-39.77-38.48-37-5.66.72-6.63,1.26-7.59,6.67q-1.84,10.33-3.51,20.71-3.35,21-5.93,42-5.25,42.75-7.35,85.81a1173.31,1173.31,0,0,0,6.6,192.94l2.57-1.06c-24-24.81-57-38.53-90.78-43.11-40.39-5.48-81.2,1.79-120.33,11.66a1.52,1.52,0,0,0-.66,2.51A459.86,459.86,0,0,1,1128.69,564c17.94,44.35,27.78,90.94,33.33,138.34,10.81,92.37,7.44,188.89,41.37,277a322.27,322.27,0,0,0,15.14,33.59c6.4,12.23,13.73,24.17,17.89,37.42,3.91,12.45,4.44,25.43-1.82,37.21-5.56,10.48-15.54,18.46-27.88,17.22-1.92-.19-1.91,2.81,0,3,18.35,1.84,31.9-15,35-31.62,4.3-22.87-10.06-44.67-20.2-63.92-23-43.75-34.43-92.29-40.93-141-13.07-97.84-8.94-198.42-43.08-292.47a464.31,464.31,0,0,0-81.45-140.66l-.66,2.51c69.08-17.43,153.83-25.6,208.18,30.67.84.86,2.72.27,2.56-1.06a1169.54,1169.54,0,0,1,5.92-315.8q1.46-9.33,3.07-18.65c.35-2.05.52-8.38,2.22-9.83s6.13-1.15,8.4-1c11.73.86,21.43,9.75,26.23,20,5.31,11.32,6,24.19,6.42,36.48q.72,19.11.19,38.24c-1.44,51.66-9.35,103.82-24.82,153.19-3.88,12.37-9,24.81-18.53,33.93-8.13,7.76-18.6,12.22-29.6,14.07-23,3.85-46.85-2.11-68.81-8.53-1.59-.46-2.75,2.05-1.16,2.74a538.52,538.52,0,0,1,106.71,62.31,1.51,1.51,0,0,0,2.2-.9,755.67,755.67,0,0,0,36.57-199A747.76,747.76,0,0,0,1319,174.72c-.57-6.24-.53-13.36-3.22-19.15-2.46-5.29-7.31-7.9-12.67-9.58-16.68-5.23-34-9-51-13.1s-34-8.13-51.16-11.67c-16.44-3.4-33.33-6.09-50.16-4.61s-32.32,7.89-48.2,13.08a289.3,289.3,0,0,1-49.7,11.18c-34.34,4.85-69.56,6.06-104.21,5.71-34.1-.34-68.34-3.3-101.48-11.65-55.44-14-109.27-44.86-139.89-94.48a170.6,170.6,0,0,1-9.61-17.94c-.81-1.74-3.4-.22-2.59,1.52Z"/><path d="M490.06,452.21c29.68,14.59,33.49,55.56,39.62,84.08Q542.75,597,555.8,657.76a1.52,1.52,0,0,0,2.21.89,846.27,846.27,0,0,1,261.13-89.32c30.72-5.14,61.63-7.86,92.61-10.81,34.08-3.25,68.39-7.8,100.29-20.86a1.51,1.51,0,0,0,0-2.89C975.81,520.58,946.9,490,934,453.33c-7.61-21.54-8-43.66-7-66.25.87-21.22,2-42.92-4.89-63.34-6.08-18-17.83-34.26-36.18-40.86a1.51,1.51,0,0,0-1.9,1.44c-.52,16.53-9.44,30.72-20.17,42.71-10.32,11.54-22.2,21.83-34.09,31.71A510.52,510.52,0,0,1,751,412.33c-55.46,30.75-116.16,51.7-178.43,63.34Q560,478,547.28,479.87c-9.25,1.35-19,2.7-28.22.61-8.34-1.89-15.22-6.67-17.77-15.07-2.1-6.91-.76-15,6.13-18.47,1.72-.88.2-3.47-1.52-2.59-10,5.1-10.31,18.14-5.35,27,7.11,12.71,23.64,14,36.59,12.79,34.2-3.08,68.71-11.55,101.52-21.43,65.93-19.85,128.7-50.92,182.91-93.55,14.95-11.75,29.82-24.22,42.73-38.22,12-13,22.11-28.42,22.68-46.62l-1.9,1.45c18.73,6.74,30,24.43,35.37,42.84,6.41,22.16,3.78,45.51,3.15,68.21-.6,21.09,1.28,41.62,9,61.39A142.5,142.5,0,0,0,960.66,503a137,137,0,0,0,50.58,34.65v-2.89c-29.09,11.91-60.22,16.76-91.31,19.94-30.33,3.11-60.68,5.36-90.84,10a848.46,848.46,0,0,0-272.6,91.35l2.21.9Q548,607.4,537.38,557.85c-3.45-16-6.78-32.1-10.36-48.11-2.55-11.41-5.6-22.84-10.67-33.42-5.41-11.28-13.4-21.11-24.77-26.7-1.73-.85-3.25,1.73-1.52,2.59Z"/><path d="M404.4,145.27C422,161.69,445.9,167,469,170.11c29,3.95,58.66,7.63,88,6.3a223.35,223.35,0,0,0,137-55.49c19.8-17.54,38.42-41.69,35.79-69.65-.17-1.9-3.18-1.92-3,0,2.37,25.17-13.2,47.2-30.69,63.68a216.1,216.1,0,0,1-60.69,40,218.66,218.66,0,0,1-70.88,18c-28.16,2.22-56.36-1.1-84.29-4.42-25.86-3.08-53.95-6.86-73.79-25.38-1.41-1.32-3.54.8-2.12,2.12Z"/><path d="M1233.41,446.78c-6.25-19.32-7.45-40.09-8.84-60.22q-2.13-30.78-1.75-61.67a761.7,761.7,0,0,1,11.36-122.35q6-34.14,15.06-67.62a1.5,1.5,0,0,0-2.89-.8,767.44,767.44,0,0,0-25.15,246.76c1.37,22.19,2.43,45.4,9.32,66.7.59,1.83,3.49,1,2.89-.8Z"/><path d="M10.43,502c67.47,62.87,168.08,58,246,100.77,22.33,12.24,52.05,31.53,51,60.43-.07,1.93,2.93,1.93,3,0,.87-24.19-19.21-41.92-37.71-54.14s-39.15-21.25-60.14-28.55c-43.77-15.21-89.81-23.17-133-40.14-24.5-9.62-47.73-22.47-67.07-40.49-1.41-1.32-3.54.8-2.12,2.12Z"/><path d="M497.65,462.09c111.78.43,213.66-53.77,303.09-116,26.3-18.3,52-37.47,77.66-56.64,1.53-1.14,0-3.74-1.52-2.59-87.94,65.65-179,133.28-287.2,160.61a369.72,369.72,0,0,1-92,11.66,1.5,1.5,0,0,0,0,3Z"/><path d="M489.13,457.76c4.88,38.9,13.33,77.2,23.08,115.14q7.37,28.62,15.33,57.08c1.85,6.63,3.92,14,9.56,18.48,4.56,3.62,10.45,4.7,15.67,2,1.71-.89.2-3.48-1.51-2.59-9.93,5.16-17-6.13-19.48-14-2.45-7.67-4.34-15.57-6.46-23.34-4.5-16.52-8.93-33.06-13.07-49.67-8.48-34-15.76-68.3-20.12-103.07-.24-1.89-3.24-1.91-3,0Z"/><path d="M537.37,644.62l90.72-39.49c15.06-6.56,30.08-13.66,46.08-17.65,15.77-3.93,32.05-4.87,48.13-6.78,58.62-7,113.52-30,170.9-42.54,32.57-7.12,66.1-10.45,99.17-4.74,1.88.33,2.7-2.56.79-2.89C934.49,520.4,876.71,538.22,821,554.7c-29.08,8.59-58.34,17.08-88.38,21.62-15.69,2.36-31.57,3.17-47.22,5.81s-30.06,8-44.48,14.19c-35.06,15.1-70,30.47-105,45.71-1.77.76-.24,3.35,1.51,2.59Z"/><path d="M976.32,546.59C960,531.5,943.91,516,929.1,499.38c-7.39-8.26-14.06-17.23-18.11-27.64a95.94,95.94,0,0,1-5.94-30.18c-1.92-40.79,16.26-83.07,1.65-123-6.1-16.64-17.35-31.23-34.05-38.09-1.79-.73-2.57,2.17-.8,2.9,16.81,6.9,27.76,22.55,33.13,39.43,6.37,20.06,4.53,41.49,1.87,62s-6.28,41.08-4.46,61.82a88.68,88.68,0,0,0,20.54,50.15c15.45,18.62,33.54,35.47,51.27,51.88,1.41,1.31,3.54-.81,2.12-2.12Z"/><path d="M567.3,1174.74c40.69-19.49,81.3-39.12,122.06-58.47,20.28-9.62,40.46-16.75,62.73-20s44.52-5.4,66.79-7.52a862.18,862.18,0,0,1,132-2.08c43.65,2.5,87.17,6.9,130.86,8.76,48.08,2,96.5.8,143.7-9.36,1.89-.41,1.09-3.3-.8-2.89-86.79,18.69-175.73,6.71-263.24,1.12-44-2.8-87.85-3.33-131.81.47-22.31,1.92-44.58,4.41-66.81,7.1-20.63,2.49-40.35,6.62-59.54,14.8-23,9.79-45.29,21.32-67.82,32.11l-69.66,33.37c-1.74.84-.22,3.42,1.51,2.59Z"/></g></g></svg>